#!OML:ASF E:\motion texture\Top Level 1\Subject 1\Session 1\male.ASF
:FULLY-SPECIFIED
:DEGREES
789
root -50.3731 17.9799 2.24153 432.52 -84.2477 -428.317
lowerback -1.09184 -0.933665 3.4406
upperback 0.0815939 -1.4224 4.58274
thorax 0.732506 -0.7494 2.75651
lowerneck -18.774 -2.68131 -5.25602
upperneck 31.4108 -3.40576 1.61423
head 13.9669 -2.13295 0.900143
rclavicle -5.81445e-015 5.56597e-015
rhumerus -46.3779 -39.956 -51.9828
rradius 17.1545
rwrist 33.7167
rhand -14.4081 -32.0427
rfingers 7.12502
rthumb 11.7356 -421.694
lclavicle -5.81445e-015 5.56597e-015
lhumerus -28.6512 19.0422 76.8073
lradius 41.7779
lwrist -16.7438
lhand -16.3418 24.6112
lfingers 7.12502
lthumb 9.87042 54.3598
rfemur -27.3449 -2.45292 17.9577
rtibia 15.7588
rfoot -1.42188 -20.5712
rtoes 18.0177
lfemur -15.5758 1.40014 -11.5859
ltibia 49.8884
lfoot -1.76553 -5.61934
ltoes -21.7537
790
root -50.4441 17.9765 2.23055 434.732 -83.786 -430.603
lowerback -1.00374 -0.892449 3.88959
upperback 0.0213445 -1.37892 4.8471
thorax 0.617019 -0.733481 2.78232
lowerneck -18.6046 -2.6257 -5.28143
upperneck 31.3267 -3.32778 1.62433
head 13.8904 -2.10193 0.924451
rclavicle 3.37934e-015 3.97569e-015
rhumerus -44.5154 -38.5289 -54.1758
rradius 17.8227
rwrist 31.3845
rhand -14.5253 -32.0306
rfingers 7.12502
rthumb 11.6226 -421.688
lclavicle 3.37934e-015 3.97569e-015
lhumerus -28.6512 19.0422 76.8073
lradius 41.7779
lwrist -16.7438
lhand -16.3418 24.6112
lfingers 7.12502
lthumb 9.87042 54.3598
rfemur -27.3449 -2.45292 17.9577
rtibia 15.7588
rfoot -1.42188 -20.5712
rtoes 18.0177
lfemur -16.4385 1.58131 -10.8509
ltibia 51.4445
lfoot -1.20686 -5.44304
ltoes -21.5311
791
root -50.5198 17.9733 2.22304 436.002 -83.531 -431.997
lowerback -0.804427 -0.820225 4.19624
upperback -0.0549823 -1.27538 4.99905
thorax 0.421857 -0.686779 2.77437
lowerneck -18.6027 -2.66842 -5.1933
upperneck 31.4229 -3.36698 1.43921
head 13.9282 -2.13726 0.827566
rclavicle -1.14301e-015 7.23576e-014
rhumerus -43.0338 -37.2682 -56.0158
rradius 18.608
rwrist 29.2497
rhand -14.6254 -31.6428
rfingers 7.12502
rthumb 11.5261 -421.306
lclavicle -1.14301e-015 7.23576e-014
lhumerus -28.6512 19.0422 76.8073
lradius 41.7779
lwrist -16.7438
lhand -16.3418 24.6112
lfingers 7.12502
lthumb 9.87042 54.3598
rfemur -27.3449 -2.45292 17.9577
rtibia 15.7588
rfoot -1.42188 -20.5712
rtoes 18.0177
lfemur -17.1364 1.65045 -10.4478
ltibia 52.8277
lfoot -1.92604 -4.85863
ltoes -23.2566
792
root -50.5768 17.9748 2.20969 439.081 -82.984 -435.09
lowerback -0.799658 -0.73897 4.69074
upperback -0.0115263 -1.19235 5.28042
thorax 0.459651 -0.651168 2.79096
lowerneck -18.6174 -2.59868 -5.1132
upperneck 31.3192 -3.27393 1.42023
head 13.8798 -2.08631 0.823233
rclavicle -7.85199e-015 3.81667e-014
rhumerus -41.1136 -36.0131 -58.0392
rradius 19.1338
rwrist 27.2532
rhand -14.399 -31.5327
rfingers 7.12502
rthumb 11.7443 -421.184
lclavicle -7.85199e-015 3.81667e-014
lhumerus -28.6512 19.0422 76.8073
lradius 41.7779
lwrist -16.7438
lhand -16.3418 24.6112
lfingers 7.12502
lthumb 9.87042 54.3598
rfemur -27.3449 -2.45292 17.9577
rtibia 15.7588
rfoot -1.42188 -20.5712
rtoes 18.0177
lfemur -18.1047 1.9547 -9.56968
ltibia 54.2739
lfoot -2.54884 -4.5377
ltoes -23.0609
793
root -50.644 17.9745 2.20481 440.315 -82.9601 -436.428
lowerback -0.771186 -0.662752 4.77224
upperback 0.0606536 -1.09843 5.34431
thorax 0.516699 -0.604763 2.81275
lowerneck -18.6442 -2.68254 -5.07519
upperneck 31.2941 -3.39886 1.39695
head 13.8786 -2.13736 0.785454
rclavicle -4.07509e-015 3.02153e-014
rhumerus -39.5831 -35.0642 -59.7404
rradius 20.0138
rwrist 25.5792
rhand -14.1028 -31.5288
rfingers 7.12502
rthumb 12.03 -421.163
lclavicle -4.07509e-015 3.02153e-014
lhumerus -28.6512 19.0422 76.8073
lradius 41.7779
lwrist -16.7438
lhand -16.3418 24.6112
lfingers 7.12502
lthumb 9.87042 54.3598
rfemur -27.3449 -2.45292 17.9577
rtibia 15.7588
rfoot -1.42188 -20.5712
rtoes 18.0177
lfemur -18.761 2.04465 -9.4784
ltibia 55.3367
lfoot -3.44283 -3.91402
ltoes -22.9328
794
root -50.7196 17.9766 2.20329 441.3 -82.9632 -437.496
lowerback -0.772926 -0.619133 4.80924
upperback 0.015058 -1.04174 5.41949
thorax 0.470843 -0.578859 2.8713
lowerneck -18.2987 -3.88537 -5.58645
upperneck 30.8074 -5.18985 1.94193
head 13.7035 -2.89178 0.784227
rclavicle -1.19271e-015 2.70347e-014
rhumerus -38.3067 -33.6195 -61.3822
rradius 21.0306
rwrist 23.7352
rhand -14.154 -31.1818
rfingers 7.12502
rthumb 11.9806 -420.819
lclavicle -1.19271e-015 2.70347e-014
lhumerus -28.6512 19.0422 76.8073
lradius 41.7779
lwrist -16.7438
lhand -16.3418 24.6112
lfingers 7.12502
lthumb 9.87042 54.3598
rfemur -27.3449 -2.45292 17.9577
rtibia 15.7588
rfoot -1.42188 -20.5712
rtoes 18.0177
lfemur -18.761 2.04465 -9.4784
ltibia 55.3367
lfoot -3.44283 -3.91402
ltoes -22.9328
795
root -50.7692 17.9838 2.19021 444.395 -82.9382 -440.555
lowerback -1.35347 -0.437829 4.9391
upperback 0.54845 -0.893197 5.3869
thorax 1.34314 -0.491468 2.7576
lowerneck -18.2987 -3.88537 -5.58645
upperneck 30.8074 -5.18985 1.94193
head 13.7035 -2.89178 0.784227
rclavicle 2.18663e-015 3.4191e-014
rhumerus -36.0108 -33.3164 -63.4041
rradius 21.7353
rwrist 22.5038
rhand -14.0662 -31.0944
rfingers 7.12502
rthumb 12.0653 -420.727
lclavicle 2.18663e-015 3.4191e-014
lhumerus -28.6512 19.0422 76.8073
lradius 41.7779
lwrist -16.7438
lhand -16.3418 24.6112
lfingers 7.12502
lthumb 9.87042 54.3598
rfemur -27.3449 -2.45292 17.9577
rtibia 15.7588
rfoot -1.42188 -20.5712
rtoes 18.0177
lfemur -18.761 2.04465 -9.4784
ltibia 55.3367
lfoot -3.44283 -3.91402
ltoes -22.9328
796
root -50.8321 17.9914 2.18982 446.135 -82.9181 -442.332
lowerback -1.32033 -0.359682 5.0917
upperback 0.494618 -0.786501 5.38932
thorax 1.266 -0.438832 2.678
lowerneck -18.2987 -3.88537 -5.58645
upperneck 30.8074 -5.18985 1.94193
head 13.7035 -2.89178 0.784227
rclavicle -6.4605e-015 1.51076e-014
rhumerus -34.8031 -32.1218 -64.8433
rradius 22.6108
rwrist 21.0734
rhand -14.0761 -31.0004
rfingers 7.12502
rthumb 12.0557 -420.633
lclavicle -6.4605e-015 1.51076e-014
lhumerus -28.6512 19.0422 76.8073
lradius 41.7779
lwrist -16.7438
lhand -16.3418 24.6112
lfingers 7.12502
lthumb 9.87042 54.3598
rfemur -27.3449 -2.45292 17.9577
rtibia 15.7588
rfoot -1.42188 -20.5712
rtoes 18.0177
lfemur -18.761 2.04465 -9.4784
ltibia 55.3367
lfoot -3.44283 -3.91402
ltoes -22.9328
797
root -50.886 17.9991 2.18513 448.526 -83.2097 -444.763
lowerback -1.45015 -0.252127 4.78724
upperback 0.650191 -0.656668 5.36381
thorax 1.50071 -0.371606 2.82359
lowerneck -18.2987 -3.88537 -5.58645
upperneck 30.8074 -5.18985 1.94193
head 13.7035 -2.89178 0.784227
rclavicle -8.94531e-016 -1.51076e-014
rhumerus -33.3087 -31.2705 -66.2152
rradius 23.4385
rwrist 20.0014
rhand -14.0826 -30.477
rfingers 7.12502
rthumb 12.0494 -420.11
lclavicle -8.94531e-016 -1.51076e-014
lhumerus -28.6512 19.0422 76.8073
lradius 41.7779
lwrist -16.7438
lhand -16.3418 24.6112
lfingers 7.12502
lthumb 9.87042 54.3598
rfemur -27.3449 -2.45292 17.9577
rtibia 15.7588
rfoot -1.42188 -20.5712
rtoes 18.0177
lfemur -18.761 2.04465 -9.4784
ltibia 55.3367
lfoot -3.44283 -3.91402
ltoes -22.9328
798
root -50.9383 18.0093 2.18153 450.751 -83.3497 -446.995
lowerback -1.37758 -0.148225 4.63489
upperback 0.651524 -0.508813 5.38199
thorax 1.46027 -0.299632 2.93194
lowerneck -18.2987 -3.88537 -5.58645
upperneck 30.8074 -5.18985 1.94193
head 13.7035 -2.89178 0.784227
rclavicle -5.86415e-015 1.35174e-014
rhumerus -32.1729 -30.6518 -67.1535
rradius 24.2431
rwrist 18.9912
rhand -13.9523 -28.0307
rfingers 7.12502
rthumb 12.1751 -417.656
lclavicle -5.86415e-015 1.35174e-014
lhumerus -28.6512 19.0422 76.8073
lradius 41.7779
lwrist -16.7438
lhand -16.3418 24.6112
lfingers 7.12502
lthumb 9.87042 54.3598
rfemur -27.3449 -2.45292 17.9577
rtibia 15.7588
rfoot -1.42188 -20.5712
rtoes 18.0177
lfemur -18.761 2.04465 -9.4784
ltibia 55.3367
lfoot -3.44283 -3.91402
ltoes -22.9328
